<svg xmlns="http://www.w3.org/2000/svg" viewBox="0 0 100 100" role="img" aria-label="Farmwood">
  <defs><clipPath id="fw-c"><circle cx="50" cy="50" r="50"></circle></clipPath></defs>
  <g clip-path="url(#fw-c)">
    <rect width="100" height="100" fill="#b9d7df"></rect>
    
    <circle cx="16" cy="70" r="26" fill="#2f7d4f"></circle>
    <circle cx="84" cy="72" r="24" fill="#2f7d4f"></circle>
    <circle cx="50" cy="95" r="32" fill="#3aa05f"></circle>
    <circle cx="18" cy="94" r="24" fill="#3aa05f"></circle>
    <circle cx="86" cy="94" r="24" fill="#3aa05f"></circle>
    
    <g transform="rotate(-7 62 46)">
      <rect x="60" y="39" width="36" height="13" rx="1.2" fill="#4b4f57"></rect>
      <text x="78" y="48.4" font-family="Arial, Helvetica, sans-serif" font-size="6.2" font-weight="800" fill="#eef1f4" text-anchor="middle" letter-spacing="0.2">FARMWOOD</text>
    </g>
    
    <rect x="40" y="33" width="20" height="62" rx="3" fill="#e7e2d7"></rect>
    
    <path d="M50 7 L64.5 40 L35.5 40 Z" fill="#4b4f57"></path>
    <path d="M42 33 h16 l-2.5 -4 h-11 z M44 28 h12 l-2.5 -4 h-7 z" fill="#565b64"></path>
    
    <rect x="45.5" y="45" width="5" height="9" rx="1.6" fill="#cfe0ee" stroke="#a9bccb" stroke-width="0.6"></rect>
    <rect x="45.5" y="62" width="5" height="9" rx="1.6" fill="#cfe0ee" stroke="#a9bccb" stroke-width="0.6"></rect>
    <rect x="45.5" y="79" width="5" height="9" rx="1.6" fill="#cfe0ee" stroke="#a9bccb" stroke-width="0.6"></rect>
  </g>
</svg>